<svg width="146" height="206" viewBox="0 0 146 206" fill="none" xmlns="http://www.w3.org/2000/svg">
<g clip-path="url(#clip0_6963_16491)">
<path d="M115.551 15.2084C97.2612 4.42416 73.8944 7.07467 57.2144 19.6739C49.2712 25.6712 42.8451 33.5299 38.1101 42.2594C33.2274 51.266 28.6231 62.6791 30.7327 73.0755C31.7795 78.2244 34.5378 82.6199 39.3059 85.0386C43.6541 87.2417 50.3336 87.6387 53.2013 82.8283C57.6328 75.4143 46.5358 73.9498 42.0275 75.136C36.4327 76.6197 31.6569 80.5945 28.4525 85.3278C21.9496 94.9008 21.3717 107.718 22.4305 118.882C23.4313 129.438 26.3516 139.774 31.3906 149.119C42.6619 170.046 64.2041 182.147 87.8757 180.44C91.441 180.186 92.4089 185.348 88.7775 186.007C62.7694 190.676 37.2256 173.196 25.5397 150.897C18.9552 138.328 16.0417 123.97 16.2557 109.844C16.4503 96.7236 20.0725 82.5622 31.0772 74.3266C38.5945 68.7022 54.7101 64.876 59.2557 76.4278C63.7331 87.8083 49.1317 94.1649 40.2612 91.499C27.9727 87.8064 23.5734 75.1571 25.2415 63.3788C27.0827 50.4176 33.9375 37.5763 42.367 27.7014C60.5184 6.42516 92.4564 -3.28675 117.061 13.1504C118.436 14.0724 116.959 16.0236 115.571 15.2052L115.551 15.2084Z" fill="#F4F4F4"/>
<path d="M73.088 194.91C84.509 189.12 95.9577 183.375 107.498 177.818C107.354 179.31 107.201 180.804 107.06 182.306C95.9795 176.067 84.3253 170.975 72.2452 167.006C73.5174 165.979 74.7797 164.954 76.0503 163.918C76.8059 171.647 77.0548 179.437 76.3849 187.184C76.3242 187.872 76.1202 193.305 75.6461 193.442C74.9019 192.975 74.1576 192.508 73.4134 192.041L76.8665 190.094C80.9046 187.819 84.933 185.546 88.9695 183.261C89.5527 185.172 90.1243 187.075 90.7075 188.987C87.301 189.721 83.8946 190.455 80.4897 191.199C76.6241 192.038 75.8957 186.29 79.5255 185.247C86.1184 183.358 92.5763 181.137 98.9468 178.626L99.8758 184.361C94.3845 184.42 88.8933 184.479 83.402 184.538C79.7111 184.578 80.305 179.427 83.2483 178.586C89.7409 176.703 96.3072 178.841 102.87 177.828C102.67 179.785 102.461 181.744 102.261 183.701C93.8871 180.661 85.6179 177.391 77.2872 174.243C73.9753 172.996 75.1309 167.248 78.8018 168.021C85.0446 169.35 90.6971 171.787 96.0557 175.224C94.7238 177.071 93.392 178.918 92.0601 180.765C87.7398 177.858 82.04 174.253 76.6924 173.823C77.5813 173.557 78.4604 173.293 79.3494 173.028C79.1282 173.225 78.8955 173.415 78.6744 173.613L79.9511 171.238C79.8142 172.77 83.0464 176.714 83.6624 178.265C84.615 180.644 85.2399 183.126 85.6773 185.638C86.491 190.348 79.1664 191.535 78.3429 186.826C77.6395 182.797 76.9559 178.764 76.2822 174.73C75.4514 169.789 82.3696 169.033 83.7251 173.524C85.6249 179.811 84.8589 187.716 80.5639 192.97C78.8825 195.035 76.0165 196.229 73.576 194.608C71.4304 193.183 71.3536 190.207 71.239 187.936C70.9428 181.855 72.1221 173.813 78.947 171.857C83.5941 170.527 92.6173 172.509 91.8311 178.725C91.6724 179.997 90.8526 181.315 89.6141 181.799C84.5827 183.759 79.3723 181.361 76.0331 177.445C73.5671 174.542 76.8302 169.92 80.3843 171.411C83.3937 172.666 86.1816 174.18 88.8809 176.022C92.6061 178.569 89.2946 184.08 85.2384 182.741C79.3091 180.784 76.222 175.672 73.1594 170.586C70.596 166.331 77.6568 163.141 80.1857 167.371C82.1844 170.704 84.1295 174.269 88.015 175.554C86.798 177.798 85.591 180.04 84.3725 182.273C82.2174 180.789 80.0297 179.603 77.616 178.586C79.0735 176.577 80.5195 174.56 81.9672 172.553C82.8453 173.596 84.8146 175.435 86.4072 174.822C85.6709 175.843 84.9264 176.875 84.1902 177.896C84.2209 177.648 84.25 177.39 84.2906 177.14C84.5773 178.097 84.8623 179.043 85.1489 180C84.4229 179.145 80.8533 179.247 80.2148 179.746C79.243 180.501 79.1175 182.79 78.9927 183.834C78.8512 184.961 78.8197 186.08 78.8622 187.218C78.8954 188.236 79.713 190.281 78.7584 189.079L75.2085 187.739C75.8203 187.701 77.045 181.941 77.0811 181.601C77.3632 179.215 76.9754 177.008 76.292 174.728L83.735 173.523C84.389 177.56 85.0529 181.596 85.697 185.635L78.3626 186.823C77.6087 181.981 75.2413 178.748 73.3836 174.409C72.3068 171.889 72.5664 168.676 75.2278 167.283C78.1397 165.747 82.1006 167.811 84.8491 168.956C88.8266 170.621 92.5569 172.762 96.0853 175.22C99.707 177.753 95.7464 183.196 92.0898 180.76C87.4938 177.716 82.6187 175.699 77.3251 174.227C78.1037 172.216 78.874 170.217 79.6525 168.207C87.8137 171.748 96.1624 174.883 104.505 177.979C107.339 179.029 106.884 183.408 103.896 183.852C97.3469 184.821 90.6739 182.651 84.2587 184.51C84.2102 182.522 84.1519 180.536 84.1034 178.548C89.5946 178.49 95.0843 178.421 100.576 178.362C103.579 178.331 104.141 183.052 101.505 184.097C94.6301 186.811 87.6455 189.159 80.5391 191.191L79.5749 185.239C82.9813 184.504 86.3862 183.76 89.7926 183.026C93.3159 182.263 94.3326 187.164 91.5305 188.752C86.538 191.577 81.3088 195.443 75.976 197.542C73.6044 198.474 71.0094 198.276 69.9286 195.544C68.5552 192.069 70.4674 186.613 70.7242 182.944C71.1528 176.898 71.0669 170.864 70.524 164.823C70.3267 162.667 72.2083 161.025 74.3291 161.735C86.8438 165.948 98.7626 171.423 110.163 178.075C111.908 179.089 111.384 181.798 109.725 182.563C98.025 187.882 86.2963 193.024 74.5481 198.108C72.4659 199.013 71.0759 195.935 73.0895 194.92L73.088 194.91Z" fill="#F4F4F4"/>
</g>
<defs>
<clipPath id="clip0_6963_16491">
<rect width="189.1" height="116.82" fill="white" transform="matrix(-0.159902 -0.987133 -0.987133 0.159902 145.555 186.667)"/>
</clipPath>
</defs>
</svg>
