<svg width="197" height="223" viewBox="0 0 197 223" fill="none" xmlns="http://www.w3.org/2000/svg">
<g clip-path="url(#clip0_6963_16512)">
<path d="M106.347 14.8362C85.3855 11.4561 64.59 22.4372 53.6462 40.2472C48.4337 48.7261 45.3122 58.3858 44.0827 68.2404C42.8168 78.4068 42.6867 90.713 48.4388 99.6264C51.2894 104.04 55.4595 107.129 60.7811 107.644C65.6331 108.112 71.9982 106.048 72.9163 100.524C74.3423 92.0046 63.4745 94.6835 59.7081 97.4306C55.0383 100.85 52.0387 106.292 50.7789 111.867C48.2103 123.152 52.3415 135.299 57.3948 145.31C62.1724 154.776 68.6575 163.338 76.7545 170.204C94.875 185.587 119.345 189.009 140.768 178.795C143.996 177.26 146.778 181.715 143.636 183.651C121.116 197.474 90.9598 190.501 71.9535 173.992C61.2426 164.686 53.2983 152.375 48.3514 139.142C43.753 126.853 41.9672 112.345 49.2154 100.666C54.1671 92.6895 67.7813 83.2553 76.223 92.3572C84.5386 101.325 73.2563 112.564 64.0243 113.313C51.235 114.351 42.5298 104.173 39.7924 92.5966C36.7852 79.8553 38.4909 65.3992 42.7435 53.132C51.8966 26.7052 78.1017 6.02553 107.004 12.3694C108.62 12.7271 107.956 15.0823 106.364 14.826L106.347 14.8362Z" fill="#F4F4F4"/>
<path d="M132.265 197.658C140.792 188.104 149.361 178.584 158.084 169.205C158.494 170.646 158.895 172.093 159.311 173.544C146.719 171.77 134.011 171.274 121.315 171.978C122.125 170.559 122.928 169.144 123.733 167.716C127.253 174.638 130.322 181.803 132.521 189.261C132.715 189.924 134.504 195.058 134.113 195.359C133.25 195.195 132.386 195.031 131.523 194.867L134.03 191.796C136.961 188.206 139.885 184.622 142.812 181.023C144.051 182.591 145.277 184.155 146.516 185.722C143.611 187.647 140.706 189.572 137.806 191.505C134.512 193.695 131.74 188.607 134.74 186.313C140.192 182.152 145.397 177.731 150.415 173.072L153.369 178.075C148.277 180.13 143.184 182.185 138.092 184.24C134.669 185.623 133.346 180.609 135.78 178.753C141.141 174.635 148.035 174.234 153.777 170.9C154.304 172.795 154.823 174.696 155.35 176.591C146.444 176.811 137.552 176.778 128.647 176.881C125.108 176.927 124.09 171.152 127.79 170.534C134.088 169.498 140.24 169.708 146.483 170.957C145.915 173.162 145.348 175.367 144.78 177.573C139.698 176.44 133.077 175.159 127.94 176.706C128.671 176.135 129.393 175.569 130.124 174.998C129.991 175.263 129.843 175.524 129.709 175.789L130.033 173.112C130.463 174.588 134.91 177.084 136.049 178.304C137.803 180.172 139.289 182.256 140.611 184.436C143.085 188.527 136.696 192.3 134.214 188.215C132.091 184.718 129.985 181.212 127.888 177.7C125.315 173.402 131.482 170.178 134.38 173.866C138.44 179.029 140.606 186.669 138.521 193.127C137.707 195.663 135.473 197.819 132.61 197.199C130.092 196.653 128.937 193.91 128.003 191.837C125.512 186.281 123.68 178.362 129.323 174.054C133.166 171.122 142.292 169.682 143.824 175.757C144.139 176.999 143.856 178.525 142.879 179.427C138.908 183.085 133.182 182.75 128.645 180.319C125.291 178.514 126.646 173.022 130.499 173.115C133.759 173.188 136.907 173.582 140.092 174.314C144.489 175.329 143.412 181.667 139.147 181.898C132.913 182.236 128.175 178.599 123.47 174.979C119.533 171.95 124.946 166.407 128.843 169.425C131.918 171.801 135.028 174.413 139.115 174.194C138.799 176.727 138.492 179.254 138.171 181.778C135.623 181.181 133.154 180.874 130.535 180.806C131.161 178.404 131.772 175.999 132.389 173.602C133.587 174.253 136.091 175.248 137.351 174.098C137.037 175.317 136.72 176.549 136.406 177.768C136.344 177.526 136.278 177.275 136.224 177.028C136.84 177.814 137.45 178.592 138.065 179.378C137.078 178.846 133.791 180.242 133.378 180.939C132.748 181.996 133.465 184.174 133.729 185.191C134.008 186.292 134.386 187.346 134.84 188.39C135.242 189.326 136.749 190.933 135.421 190.161L131.628 190.207C132.183 189.948 131.225 184.138 131.135 183.808C130.529 181.483 129.364 179.57 127.897 177.695L134.389 173.861C136.469 177.383 138.557 180.899 140.629 184.426L134.231 188.204C131.765 183.97 128.383 181.822 125.072 178.458C123.151 176.503 122.222 173.416 124.193 171.149C126.346 168.658 130.786 169.137 133.763 169.202C138.074 169.304 142.328 169.939 146.509 170.942C150.805 171.982 149.099 178.494 144.806 177.557C139.417 176.397 134.142 176.295 128.676 176.852C128.669 174.696 128.658 172.554 128.651 170.398C137.541 170.722 146.458 170.601 155.355 170.445C158.377 170.39 159.548 174.634 156.928 176.136C151.182 179.425 144.176 179.834 138.88 183.903C138.11 182.069 137.332 180.241 136.563 178.407C141.655 176.352 146.743 174.288 151.835 172.233C154.621 171.11 156.865 175.302 154.79 177.236C149.377 182.268 143.727 186.998 137.849 191.48L134.783 186.287C137.688 184.363 140.588 182.43 143.493 180.505C146.496 178.511 149.228 182.704 147.197 185.204C143.577 189.653 140.115 195.159 135.914 199.057C134.044 200.788 131.556 201.549 129.554 199.399C127.009 196.663 126.802 190.885 125.705 187.375C123.901 181.588 121.623 176 118.917 170.572C117.947 168.636 119.101 166.422 121.335 166.31C134.525 165.674 147.619 166.431 160.659 168.473C162.654 168.782 163.153 171.495 161.886 172.812C152.928 182.028 143.879 191.089 134.79 200.104C133.18 201.705 130.765 199.345 132.27 197.666L132.265 197.658Z" fill="#F4F4F4"/>
</g>
<defs>
<clipPath id="clip0_6963_16512">
<rect width="189.1" height="116.82" fill="white" transform="matrix(-0.508531 -0.861044 -0.861044 0.508531 196.75 163.582)"/>
</clipPath>
</defs>
</svg>
