<svg width="182" height="225" viewBox="0 0 182 225" fill="none" xmlns="http://www.w3.org/2000/svg">
<g clip-path="url(#clip0_6963_16509)">
<path d="M174.842 203.265C182.95 176.956 173.75 148.334 154.887 128.927C145.808 119.587 134.916 112.195 123.17 106.605C111.185 100.907 96.9039 95.456 83.3992 96.5313C73.977 97.2725 59.5174 104.258 63.2292 116.08C66.488 126.485 80.4145 134.159 90.9104 132.615C102.668 130.885 109.172 118.885 109.114 107.901C109.046 94.795 101.773 81.9176 93.954 71.7904C76.8323 49.6197 49.7192 35.4752 21.6467 34.7631C18.97 34.6972 18.3809 38.8312 21.1033 38.9316C41.4685 39.6356 61.0043 47.1506 76.7095 60.1084C84.712 66.7094 91.6342 74.7264 96.8595 83.6943C102.839 93.9656 108.299 107.259 102.736 118.832C96.5958 131.609 82.053 130.808 72.4695 122.396C66.8801 117.49 64.1102 110.813 70.6327 105.179C75.9232 100.604 83.7392 99.852 90.4335 100.511C111.876 102.637 134.595 114.659 149.998 129.414C169.307 147.912 179.962 175.903 172.283 202.213C171.793 203.904 174.315 204.982 174.842 203.265Z" fill="#F4F4F4"/>
<path d="M36.3198 51.8016C33.1694 48.9551 29.4767 47.1792 26.141 44.8304C22.273 42.1011 18.4232 39.1977 14.8196 35.7538C14.7661 36.8936 14.7138 38.0418 14.6603 39.1815C18.1146 37.1133 21.6398 35.2496 25.2537 33.6738C28.764 32.1382 32.949 31.7009 36.18 29.4236C37.1188 28.761 37.0658 26.2035 35.7145 26.0829C32.1153 25.7609 28.2291 27.8636 24.926 29.276C20.9527 30.9705 17.1177 33.0489 13.3748 35.4404C12.2444 36.1641 12.4137 38.2936 13.5445 39.1397C17.3148 41.9513 21.0193 44.9007 24.8673 47.4869C28.3269 49.8099 32.1399 52.667 35.8521 53.6252C36.55 53.8025 36.9812 52.4128 36.3162 51.8192L36.3198 51.8016Z" fill="#F4F4F4"/>
</g>
<defs>
<clipPath id="clip0_6963_16509">
<rect width="205.063" height="154.401" fill="white" transform="translate(28.2969 224.408) rotate(-97.932)"/>
</clipPath>
</defs>
</svg>
