<svg width="152" height="85" viewBox="0 0 152 85" fill="none" xmlns="http://www.w3.org/2000/svg">
<g id="Hand-drawn arrow">
<path id="Vector" d="M6.63317 56.9857C6.45161 57.4967 5.8902 57.7637 5.37922 57.5822C4.86825 57.4006 4.6012 56.8392 4.78275 56.3282L6.63317 56.9857ZM80.559 16.9214L80.5037 17.9017L80.5037 17.9017L80.559 16.9214ZM142.8 54.3867C143.075 54.8544 142.918 55.456 142.45 55.7303C141.982 56.0047 141.381 55.8478 141.106 55.3801L142.8 54.3867ZM123.694 48.3951C123.206 48.1586 123.002 47.5713 123.238 47.0833C123.475 46.5953 124.062 46.3914 124.55 46.6278L123.694 48.3951ZM142.256 56.2979L143.178 56.6359C143.083 56.8963 142.882 57.1043 142.624 57.2082C142.367 57.3122 142.078 57.3025 141.828 57.1815L142.256 56.2979ZM147.446 39.2892C147.633 38.7801 148.197 38.5187 148.706 38.7053C149.215 38.892 149.477 39.456 149.29 39.9652L147.446 39.2892ZM5.70796 56.657C4.78275 56.3282 4.78301 56.3275 4.78333 56.3266C4.78351 56.3261 4.78389 56.325 4.78426 56.324C4.785 56.3219 4.78598 56.3192 4.7872 56.3158C4.78963 56.3091 4.79302 56.2998 4.79738 56.2879C4.80609 56.2641 4.81869 56.2301 4.83528 56.1862C4.86845 56.0985 4.91758 55.9712 4.98358 55.8072C5.11556 55.4793 5.315 55.0042 5.58903 54.4039C6.13702 53.2036 6.98377 51.5017 8.18646 49.4745C10.5913 45.421 14.4236 40.0592 20.1425 34.8052C31.6024 24.2769 50.5728 14.2444 80.6144 15.9411L80.5037 17.9017C51.0073 16.2359 32.5521 26.0712 21.471 36.2513C15.9194 41.3516 12.2023 46.5541 9.87535 50.4764C8.71216 52.4371 7.89743 54.076 7.37542 55.2194C7.11445 55.7911 6.92676 56.2386 6.80536 56.5403C6.74466 56.6912 6.70054 56.8055 6.67213 56.8807C6.65793 56.9182 6.64765 56.946 6.64119 56.9636C6.63796 56.9724 6.63569 56.9787 6.63436 56.9824C6.63369 56.9843 6.63326 56.9855 6.63306 56.986C6.63296 56.9863 6.63299 56.9862 6.63294 56.9863C6.63302 56.9861 6.63317 56.9857 5.70796 56.657ZM80.6144 15.9411C101.141 17.1001 116.692 26.7277 127.088 36.0275C132.287 40.6788 136.208 45.2574 138.831 48.6754C140.143 50.385 141.131 51.8059 141.793 52.8025C142.124 53.3009 142.374 53.6934 142.542 53.963C142.626 54.0978 142.689 54.2019 142.732 54.2733C142.754 54.3089 142.77 54.3364 142.782 54.3554C142.787 54.3649 142.792 54.3722 142.795 54.3775C142.796 54.3801 142.798 54.3822 142.798 54.3837C142.799 54.3845 142.799 54.3852 142.8 54.3856C142.8 54.3862 142.8 54.3867 141.953 54.8834C141.106 55.3801 141.106 55.3803 141.106 55.3803C141.106 55.3802 141.106 55.3801 141.106 55.3798C141.106 55.3792 141.105 55.378 141.104 55.3763C141.102 55.3729 141.099 55.3673 141.094 55.3597C141.085 55.3443 141.071 55.3206 141.052 55.2887C141.013 55.2248 140.954 55.1283 140.875 55.0013C140.717 54.7472 140.477 54.3709 140.157 53.8893C139.517 52.926 138.555 51.5417 137.273 49.8709C134.708 46.5282 130.869 42.0447 125.779 37.4911C115.595 28.3812 100.449 19.0279 80.5037 17.9017L80.6144 15.9411ZM124.55 46.6278L142.685 55.4143L141.828 57.1815L123.694 48.3951L124.55 46.6278ZM141.335 55.9599L147.446 39.2892L149.29 39.9652L143.178 56.6359L141.335 55.9599Z" fill="#1EAE06"/>
</g>
</svg>
