<svg width="152" height="85" viewBox="0 0 152 85" fill="none" xmlns="http://www.w3.org/2000/svg">
<g id="Hand-drawn arrow">
<path id="Vector" d="M6.63317 27.8698C6.45161 27.3588 5.8902 27.0917 5.37922 27.2733C4.86825 27.4548 4.6012 28.0162 4.78275 28.5272L6.63317 27.8698ZM80.559 67.9341L80.5037 66.9538L80.5037 66.9538L80.559 67.9341ZM142.8 30.4688C143.075 30.001 142.918 29.3994 142.45 29.1251C141.982 28.8508 141.381 29.0076 141.106 29.4754L142.8 30.4688ZM123.694 36.4604C123.206 36.6969 123.002 37.2841 123.238 37.7722C123.475 38.2602 124.062 38.4641 124.55 38.2276L123.694 36.4604ZM142.256 28.5576L143.178 28.2196C143.083 27.9591 142.882 27.7512 142.624 27.6473C142.367 27.5433 142.078 27.553 141.828 27.674L142.256 28.5576ZM147.446 45.5662C147.633 46.0754 148.197 46.3368 148.706 46.1501C149.215 45.9635 149.477 45.3994 149.29 44.8903L147.446 45.5662ZM5.70796 28.1985C4.78275 28.5272 4.78301 28.528 4.78333 28.5288C4.78351 28.5294 4.78389 28.5304 4.78426 28.5315C4.785 28.5335 4.78598 28.5363 4.7872 28.5396C4.78963 28.5464 4.79302 28.5557 4.79738 28.5676C4.80609 28.5914 4.81869 28.6254 4.83528 28.6692C4.86845 28.757 4.91758 28.8842 4.98358 29.0482C5.11556 29.3762 5.315 29.8513 5.58903 30.4516C6.13702 31.6519 6.98377 33.3538 8.18646 35.381C10.5913 39.4345 14.4236 44.7963 20.1425 50.0503C31.6024 60.5785 50.5728 70.611 80.6144 68.9144L80.5037 66.9538C51.0073 68.6196 32.5521 58.7843 21.471 48.6042C15.9194 43.5039 12.2023 38.3013 9.87535 34.379C8.71216 32.4184 7.89743 30.7795 7.37542 29.636C7.11445 29.0644 6.92676 28.6168 6.80536 28.3151C6.74466 28.1643 6.70054 28.0499 6.67213 27.9748C6.65793 27.9372 6.64765 27.9095 6.64119 27.8918C6.63796 27.883 6.63569 27.8768 6.63436 27.8731C6.63369 27.8712 6.63326 27.87 6.63306 27.8695C6.63296 27.8692 6.63299 27.8693 6.63294 27.8691C6.63302 27.8694 6.63317 27.8698 5.70796 28.1985ZM80.6144 68.9144C101.141 67.7554 116.692 58.1278 127.088 48.8279C132.287 44.1766 136.208 39.5981 138.831 36.18C140.143 34.4704 141.131 33.0496 141.793 32.0529C142.124 31.5545 142.374 31.1621 142.542 30.8925C142.626 30.7577 142.689 30.6535 142.732 30.5822C142.754 30.5466 142.77 30.5191 142.782 30.5001C142.787 30.4906 142.792 30.4832 142.795 30.478C142.796 30.4754 142.798 30.4733 142.798 30.4718C142.799 30.471 142.799 30.4703 142.8 30.4699C142.8 30.4693 142.8 30.4688 141.953 29.9721C141.106 29.4754 141.106 29.4752 141.106 29.4751C141.106 29.4753 141.106 29.4754 141.106 29.4757C141.106 29.4763 141.105 29.4775 141.104 29.4792C141.102 29.4826 141.099 29.4882 141.094 29.4958C141.085 29.5111 141.071 29.5349 141.052 29.5668C141.013 29.6306 140.954 29.7271 140.875 29.8542C140.717 30.1083 140.477 30.4846 140.157 30.9662C139.517 31.9295 138.555 33.3138 137.273 34.9846C134.708 38.3273 130.869 42.8108 125.779 47.3644C115.595 56.4742 100.449 65.8276 80.5037 66.9538L80.6144 68.9144ZM124.55 38.2276L142.685 29.4412L141.828 27.674L123.694 36.4604L124.55 38.2276ZM141.335 28.8956L147.446 45.5662L149.29 44.8903L143.178 28.2196L141.335 28.8956Z" fill="#1EAE06"/>
</g>
</svg>
