<svg width="36" height="37" viewBox="0 0 36 37" fill="none" xmlns="http://www.w3.org/2000/svg">
<g clip-path="url(#clip0_6963_16290)">
<path d="M16.5695 3.53003C16.5695 2.94003 16.5595 2.41003 16.5695 1.88003C16.5895 1.25003 16.9295 0.82003 17.5295 0.60003C18.1295 0.37003 18.6095 0.57003 19.0395 0.98003C19.3095 1.24003 19.4195 1.57003 19.4195 1.95003C19.4195 2.46003 19.4195 2.97003 19.4195 3.55003C19.9195 3.64003 20.3795 3.71003 20.8295 3.80003C25.5195 4.76003 28.9895 7.37003 31.2695 11.56C32.1195 13.12 32.6395 14.79 32.8495 16.56C32.8695 16.71 32.9195 16.86 32.9795 17.09C33.5195 17.09 34.0495 17.09 34.5795 17.09C35.2795 17.11 35.7095 17.44 35.9395 18.11C36.2095 18.93 35.6195 19.85 34.7595 19.92C34.4095 19.95 34.0495 19.93 33.6895 19.93C33.4795 19.93 33.2595 19.93 32.9795 19.93C32.8895 20.4 32.8095 20.84 32.7295 21.28C32.2995 23.68 31.3095 25.84 29.8095 27.75C27.8195 30.28 25.2595 32 22.1695 32.91C21.4895 33.11 20.7795 33.2 20.0795 33.34C19.8895 33.38 19.6995 33.41 19.4295 33.46C19.4295 34.01 19.4395 34.54 19.4295 35.07C19.4095 35.77 19.0795 36.2 18.4095 36.43C17.5895 36.7 16.6695 36.11 16.5995 35.25C16.5695 34.9 16.5895 34.54 16.5895 34.18C16.5895 33.97 16.5895 33.75 16.5895 33.47C16.1195 33.38 15.6795 33.3 15.2395 33.22C12.8395 32.79 10.6795 31.8 8.7695 30.3C6.2395 28.31 4.5195 25.75 3.6095 22.66C3.4095 21.98 3.3195 21.27 3.1795 20.58C3.1395 20.39 3.1095 20.2 3.0595 19.93C2.4995 19.93 1.9695 19.94 1.4495 19.93C0.749502 19.91 0.319502 19.57 0.0895024 18.91C-0.180498 18.09 0.409502 17.17 1.2695 17.1C1.6195 17.07 1.9795 17.09 2.3395 17.09C2.5595 17.09 2.7695 17.09 3.0495 17.09C3.1395 16.6 3.2095 16.14 3.2995 15.68C4.3295 10.77 7.0995 7.21003 11.5895 4.98003C12.9995 4.28003 14.4895 3.84003 16.0595 3.67003C16.2095 3.65003 16.3595 3.60003 16.5895 3.54003L16.5695 3.53003ZM30.0695 18.51C30.1295 11.93 24.6995 6.44003 18.0195 6.43003C11.4295 6.42003 5.9395 11.81 5.9195 18.47C5.8995 25.08 11.3195 30.58 18.0095 30.58C24.6595 30.58 30.1195 25.11 30.0695 18.51Z" fill="white"/>
<path d="M12.0475 18.48C11.9975 15.14 14.8675 12.52 18.0175 12.54C21.3375 12.56 23.9675 15.32 23.9575 18.52C23.9475 21.81 21.1975 24.47 17.9775 24.46C14.7075 24.44 11.9775 21.72 12.0575 18.48H12.0475Z" fill="#FA9746"/>
</g>
<defs>
<clipPath id="clip0_6963_16290">
<rect width="35.99" height="36" fill="white" transform="translate(0 0.5)"/>
</clipPath>
</defs>
</svg>
