<svg width="36" height="37" viewBox="0 0 36 37" fill="none" xmlns="http://www.w3.org/2000/svg">
<g clip-path="url(#clip0_6963_16298)">
<path d="M21.8985 32.26C21.7785 32.93 21.6585 33.65 21.4985 34.37C21.2485 35.5 19.8285 36.52 18.6185 36.49C17.9585 36.48 17.3085 36.55 16.6485 36.38C15.6085 36.11 14.4885 35.07 14.3685 33.89C14.3185 33.32 14.1985 32.76 14.1185 32.26C13.2185 31.87 12.3585 31.51 11.4985 31.12C11.2285 31 11.0185 30.94 10.7685 31.17C10.4785 31.43 10.1485 31.64 9.83846 31.87C8.63846 32.72 7.38846 32.76 6.15846 31.99C5.70846 31.71 5.37846 31.25 4.96846 30.9C4.56846 30.55 4.31846 30.1 4.15846 29.61C3.81846 28.58 4.02846 27.62 4.61846 26.74C4.83846 26.42 5.05846 26.09 5.31846 25.81C5.58846 25.52 5.51846 25.27 5.37846 24.97C5.00846 24.15 4.65846 23.32 4.26846 22.42C3.77846 22.34 3.20846 22.22 2.61846 22.16C1.44846 22.04 0.368462 20.93 0.138462 19.88C-0.0515385 18.98 -0.0615385 18.09 0.138462 17.19C0.368462 16.14 1.43846 15.02 2.61846 14.91C3.18846 14.86 3.74846 14.74 4.25846 14.66C4.64846 13.76 5.00846 12.9 5.39846 12.04C5.53846 11.74 5.52846 11.52 5.31846 11.25C4.97846 10.82 4.67846 10.35 4.38846 9.88C3.86846 9.05 3.89846 8.17 4.21846 7.29C4.37846 6.84 4.62846 6.44 4.99846 6.12C5.40846 5.77 5.74846 5.33 6.19846 5.05C7.41846 4.28 8.63846 4.35 9.81846 5.18C10.1085 5.38 10.3985 5.58 10.6485 5.82C10.9585 6.11 11.2385 6.08 11.5985 5.9C12.3885 5.52 13.2085 5.19 14.1185 4.8C14.1985 4.32 14.2985 3.72 14.3785 3.12C14.5285 1.95 15.5385 0.970004 16.5785 0.700004C17.5285 0.460004 18.5085 0.450004 19.4485 0.700004C20.4785 0.980004 21.4885 1.95 21.6285 3.14C21.6985 3.72 21.8085 4.3 21.8885 4.81C22.7785 5.19 23.6085 5.53 24.4285 5.9C24.7585 6.05 25.0085 6.09 25.3285 5.83C25.7285 5.49 26.1985 5.21 26.6385 4.92C27.6985 4.23 29.4085 4.49 30.2685 5.39C30.5185 5.64 30.7585 5.9 31.0185 6.14C32.0385 7.12 32.2085 8.32001 31.8085 9.60001C31.6685 10.05 31.2885 10.43 31.0085 10.83C30.9485 10.91 30.8585 10.98 30.7985 11.06C30.5185 11.43 30.4285 11.75 30.6885 12.23C31.0985 12.98 31.3685 13.8 31.7185 14.65C32.2385 14.73 32.8185 14.85 33.3985 14.91C34.5385 15.03 35.6385 16.14 35.8585 17.21C36.0485 18.13 36.0685 19.06 35.8385 19.96C35.5685 21 34.5885 22.01 33.4185 22.16C32.8385 22.23 32.2585 22.34 31.7285 22.42C31.3485 23.31 30.9985 24.16 30.6185 24.99C30.4785 25.3 30.4385 25.55 30.6985 25.83C30.9385 26.08 31.1185 26.38 31.3185 26.67C32.1685 27.83 32.2985 29.08 31.5085 30.28C30.9185 31.19 30.1685 32.03 29.0685 32.38C28.0485 32.7 27.0885 32.54 26.2085 31.92C25.8885 31.69 25.5585 31.48 25.2785 31.22C24.9885 30.95 24.7385 31.03 24.4385 31.16C23.6185 31.53 22.7985 31.89 21.8985 32.28V32.26ZM25.0485 28.71C25.4085 28.99 25.7285 29.25 26.0485 29.5C26.4585 29.82 26.8485 30.16 27.2685 30.45C27.8685 30.86 28.4485 30.84 28.9885 30.4C29.3085 30.14 29.6285 29.85 29.8685 29.52C30.2685 28.96 30.3685 28.44 29.9985 27.92C29.8285 27.69 29.6785 27.44 29.4985 27.22C29.0685 26.67 28.6285 26.13 28.1885 25.58C29.1985 24.09 29.8485 22.51 30.1785 20.75C30.8085 20.67 31.4185 20.59 32.0285 20.52C32.3985 20.47 32.7785 20.48 33.1285 20.37C33.6285 20.21 34.0785 19.94 34.1185 19.31C34.1485 18.92 34.2285 18.53 34.2085 18.14C34.1485 17.17 33.7785 16.79 32.8185 16.64C32.4985 16.59 32.1685 16.56 31.8385 16.52C31.2785 16.44 30.7085 16.35 30.1685 16.27C29.8485 14.48 29.1485 12.91 28.1985 11.45C28.4885 11.09 28.7485 10.78 28.9985 10.45C29.3585 9.97001 29.7285 9.5 30.0585 9.01C30.2485 8.73001 30.2385 8.42 30.1485 8.07C29.9985 7.49 29.5585 7.18 29.1785 6.81C28.5285 6.19 27.8885 6.14 27.2285 6.62C26.8285 6.91 26.4485 7.23 26.0585 7.54C25.7185 7.8 25.3885 8.07 25.0485 8.33C23.5785 7.32 22.0085 6.69 20.2785 6.35C20.2285 6.14 20.1685 5.93 20.1385 5.71C20.0485 5 19.9785 4.28 19.8785 3.57C19.7885 2.89 19.4685 2.55 18.7785 2.42C18.3985 2.35 17.9985 2.3 17.6085 2.32C16.6485 2.38 16.2785 2.75 16.1185 3.73C16.0685 4.03 16.0385 4.34 15.9985 4.65C15.9185 5.23 15.8285 5.82 15.7485 6.37C13.9485 6.68 12.3885 7.4 10.9385 8.34C10.5685 8.05 10.2485 7.78 9.92846 7.53C9.51846 7.21 9.11846 6.88 8.69846 6.58C8.23846 6.25 7.70846 6.17 7.25846 6.51C6.78846 6.87 6.35846 7.3 5.99846 7.77C5.67846 8.19 5.69846 8.7 6.01846 9.16C6.18846 9.4 6.34846 9.63 6.52846 9.86C6.94846 10.39 7.37846 10.92 7.81846 11.47C6.84846 12.94 6.14846 14.51 5.84846 16.26C5.62846 16.31 5.40846 16.37 5.18846 16.4C4.47846 16.49 3.75846 16.54 3.04846 16.67C2.31846 16.8 1.92846 17.19 1.89846 17.77C1.87846 18.16 1.78846 18.55 1.80846 18.94C1.86846 19.79 2.26846 20.29 2.97846 20.4C3.64846 20.51 4.32846 20.57 4.99846 20.66C5.29846 20.7 5.58846 20.75 5.84846 20.8C6.17846 22.58 6.84846 24.14 7.81846 25.6C7.53846 25.95 7.25846 26.29 6.99846 26.63C6.64846 27.09 6.29846 27.55 5.96846 28.02C5.75846 28.33 5.75846 28.65 5.86846 29.02C6.03846 29.61 6.48846 29.95 6.89846 30.31C7.58846 30.91 8.08846 30.88 8.69846 30.49C8.92846 30.35 9.12846 30.17 9.33846 30C9.86846 29.58 10.3985 29.16 10.9485 28.72C12.4085 29.74 14.0085 30.37 15.7585 30.72C15.8385 31.33 15.9185 31.94 15.9985 32.55C16.0485 32.92 16.0385 33.3 16.1485 33.65C16.3085 34.15 16.5685 34.61 17.1885 34.66C17.5785 34.69 17.9685 34.77 18.3585 34.75C19.3485 34.7 19.6985 34.35 19.8885 33.31C19.9385 33.03 19.9685 32.74 20.0085 32.46C20.0885 31.87 20.1685 31.29 20.2485 30.72C22.0085 30.39 23.5785 29.75 25.0585 28.74L25.0485 28.71Z" fill="#F5EFDE"/>
<path d="M25.0524 28.71C23.5724 29.72 22.0024 30.36 20.2424 30.69C20.1624 31.26 20.0824 31.85 20.0024 32.43C19.9624 32.71 19.9324 33 19.8824 33.28C19.7024 34.32 19.3524 34.67 18.3524 34.72C17.9624 34.74 17.5724 34.66 17.1824 34.63C16.5624 34.58 16.2924 34.13 16.1424 33.62C16.0324 33.27 16.0424 32.89 15.9924 32.52C15.9124 31.91 15.8324 31.3 15.7524 30.69C13.9924 30.34 12.4024 29.71 10.9424 28.69C10.3924 29.13 9.86245 29.55 9.33245 29.97C9.12245 30.14 8.91245 30.31 8.69245 30.46C8.08245 30.85 7.58245 30.88 6.89245 30.28C6.48245 29.92 6.03245 29.58 5.86245 28.99C5.75245 28.62 5.75245 28.29 5.96245 27.99C6.29245 27.52 6.64245 27.06 6.99245 26.6C7.25245 26.26 7.53245 25.93 7.81245 25.57C6.83245 24.11 6.17245 22.56 5.84245 20.77C5.58245 20.73 5.29245 20.67 4.99245 20.63C4.32245 20.54 3.64245 20.48 2.97245 20.37C2.26245 20.25 1.86245 19.76 1.80245 18.91C1.77245 18.52 1.87245 18.13 1.89245 17.74C1.92245 17.16 2.31245 16.77 3.04245 16.64C3.75245 16.52 4.47245 16.47 5.18245 16.37C5.40245 16.34 5.62245 16.28 5.84245 16.23C6.15245 14.48 6.84245 12.92 7.81245 11.44C7.37245 10.89 6.94245 10.36 6.52245 9.83001C6.34245 9.60001 6.18245 9.37001 6.01245 9.13001C5.69245 8.67001 5.67245 8.16001 5.99245 7.74001C6.35245 7.27001 6.78245 6.84001 7.25245 6.48001C7.70245 6.13001 8.23245 6.22001 8.69245 6.55001C9.11245 6.85001 9.51245 7.18001 9.92245 7.50001C10.2424 7.76001 10.5624 8.02001 10.9324 8.31001C12.3824 7.37001 13.9424 6.65001 15.7424 6.34001C15.8224 5.78001 15.9124 5.20001 15.9924 4.62001C16.0324 4.32001 16.0624 4.01001 16.1124 3.70001C16.2724 2.72001 16.6424 2.36001 17.6024 2.29001C17.9924 2.27001 18.3824 2.31001 18.7724 2.39001C19.4524 2.52001 19.7724 2.87001 19.8724 3.54001C19.9724 4.25001 20.0424 4.97001 20.1324 5.68001C20.1624 5.90001 20.2224 6.12001 20.2724 6.32001C22.0024 6.65001 23.5724 7.29001 25.0424 8.30001C25.3824 8.04001 25.7124 7.77001 26.0524 7.51001C26.4424 7.20001 26.8224 6.89001 27.2224 6.59001C27.8824 6.10001 28.5224 6.15001 29.1724 6.78001C29.5524 7.15001 29.9924 7.46001 30.1424 8.04001C30.2324 8.39001 30.2424 8.70001 30.0524 8.98001C29.7124 9.47001 29.3524 9.95001 28.9924 10.42C28.7424 10.75 28.4824 11.06 28.1924 11.42C29.1424 12.88 29.8524 14.45 30.1624 16.24C30.7024 16.32 31.2624 16.41 31.8324 16.49C32.1624 16.54 32.4824 16.56 32.8124 16.61C33.7724 16.76 34.1424 17.14 34.2024 18.11C34.2224 18.5 34.1324 18.89 34.1124 19.28C34.0724 19.91 33.6224 20.18 33.1224 20.34C32.7724 20.45 32.3924 20.44 32.0224 20.49C31.4124 20.57 30.8024 20.64 30.1724 20.72C29.8524 22.47 29.1924 24.06 28.1824 25.55C28.6224 26.1 29.0624 26.64 29.4924 27.19C29.6724 27.42 29.8224 27.66 29.9924 27.89C30.3624 28.41 30.2724 28.93 29.8624 29.49C29.6224 29.82 29.3024 30.11 28.9824 30.37C28.4524 30.81 27.8624 30.83 27.2624 30.42C26.8324 30.13 26.4424 29.79 26.0424 29.47C25.7224 29.22 25.4024 28.96 25.0424 28.68L25.0524 28.71ZM17.9524 27.52C22.9424 27.63 26.9624 23.43 27.0124 18.63C27.0724 13.59 22.8824 9.52001 18.0324 9.51001C13.0424 9.50001 8.99245 13.63 8.97245 18.48C8.94245 23.45 13.0624 27.6 17.9424 27.53L17.9524 27.52Z" fill="#F8CC4C"/>
<path d="M17.3197 19.6C17.7397 19.06 18.1397 18.56 18.5297 18.06C19.2897 17.07 20.0397 16.08 20.7897 15.09C21.1597 14.61 21.6397 14.33 22.2497 14.46C22.8597 14.59 23.2797 14.98 23.4297 15.61C23.5397 16.05 23.3997 16.44 23.1397 16.78C21.9097 18.4 20.6997 20.03 19.4297 21.61C18.2697 23.06 16.2897 23 15.1497 21.54C14.5397 20.76 13.8997 19.99 13.2797 19.21C12.6697 18.45 12.8897 17.7 13.3497 17.25C13.9497 16.65 14.8197 16.62 15.4397 17.3C15.8997 17.8 16.3097 18.36 16.7397 18.89C16.9197 19.11 17.1097 19.33 17.3297 19.6H17.3197Z" fill="#049CD1"/>
</g>
<defs>
<clipPath id="clip0_6963_16298">
<rect width="36" height="36" fill="white" transform="translate(0 0.5)"/>
</clipPath>
</defs>
</svg>
