<svg width="204" height="239" viewBox="0 0 204 239" fill="none" xmlns="http://www.w3.org/2000/svg">
<g clip-path="url(#clip0_6963_16506)">
<path d="M6.30162 198.675C1.69094 171.534 14.5429 144.354 35.7737 127.571C45.9924 119.494 57.7556 113.585 70.1291 109.573C82.755 105.485 97.6246 101.942 110.874 104.768C120.119 106.731 133.545 115.541 128.324 126.778C123.737 136.67 108.93 142.464 98.7245 139.565C87.2925 136.318 82.4075 123.572 83.8971 112.689C85.6725 99.7042 94.561 87.8843 103.633 78.8625C123.498 59.1121 152.223 48.6215 180.149 51.5739C182.812 51.8574 182.857 56.0329 180.145 55.7776C159.862 53.8217 139.513 58.7267 122.253 69.5274C113.459 75.0292 105.551 82.0758 99.2014 90.2862C91.9346 99.6908 84.7888 112.159 88.7954 124.359C93.2187 137.826 107.742 138.927 118.34 131.836C124.521 127.701 128.137 121.442 122.405 115.005C117.755 109.78 110.104 108.016 103.381 107.797C81.8445 107.111 57.7528 116.069 40.5575 128.691C19.0034 144.515 4.79077 170.879 8.97549 197.965C9.24096 199.706 6.60076 200.445 6.30162 198.675Z" fill="#F4F4F4"/>
<path d="M163.389 66.5555C166.884 64.1439 170.777 62.8644 174.39 60.9703C178.581 58.7683 182.776 56.3913 186.798 53.4465C186.702 54.5835 186.604 55.7287 186.509 56.8657C183.354 54.365 180.101 52.0578 176.724 50.0245C173.443 48.0445 169.351 47.0656 166.444 44.3866C165.6 43.6073 165.986 41.0785 167.341 41.1351C170.952 41.2849 174.531 43.8761 177.622 45.7069C181.34 47.9047 184.872 50.4652 188.271 53.3241C189.297 54.1889 188.852 56.2782 187.621 56.9697C183.516 59.2659 179.459 61.7074 175.306 63.7701C171.574 65.6225 167.421 67.9583 163.616 68.4246C162.9 68.5094 162.654 67.0754 163.391 66.5735L163.389 66.5555Z" fill="#F4F4F4"/>
</g>
<defs>
<clipPath id="clip0_6963_16506">
<rect width="205.063" height="154.401" fill="white" transform="matrix(0.265893 -0.964003 -0.964003 -0.265893 148.844 238.736)"/>
</clipPath>
</defs>
</svg>
