<svg width="36" height="37" viewBox="0 0 36 37" fill="none" xmlns="http://www.w3.org/2000/svg">
<g clip-path="url(#clip0_6963_16272)">
<path d="M12.2825 26.47C12.2425 25.25 11.7025 24.21 10.9925 23.27C10.5925 22.73 10.1025 22.26 9.63247 21.79C8.25247 20.43 7.30247 18.81 6.73247 16.96C6.55247 16.38 6.44247 15.77 6.32247 15.18C6.28247 15.01 6.32247 14.82 6.32247 14.58C6.55247 14.58 6.73246 14.58 6.91246 14.58C9.04247 14.58 11.1825 14.57 13.3125 14.58C13.7825 14.58 14.1425 14.43 14.4525 14.11C15.0425 13.51 15.6525 12.92 16.2325 12.32C16.4425 12.11 16.6225 12.05 16.9225 12.15C17.2725 12.27 17.6525 12.29 18.0125 12.35C18.0125 13.13 18.0125 13.91 18.0025 14.69C17.5825 14.8 17.1525 14.88 16.7325 15.01C15.7125 15.34 14.7625 16.58 14.7125 17.83C14.6625 19.18 15.1925 20.16 16.2825 20.88C16.6925 21.15 17.1525 21.29 17.6425 21.32C17.7625 21.32 17.8825 21.38 18.0025 21.41C18.0025 23.08 18.0025 24.76 18.0025 26.43C16.0925 26.43 14.1925 26.45 12.2825 26.45V26.47Z" fill="#FEC67C"/>
<path d="M17.9922 26.44C17.9922 24.77 17.9922 23.09 17.9922 21.42C19.5922 21.29 20.7122 20.44 21.1622 19.01C21.3522 18.39 21.3222 17.76 21.1822 17.13C21.1422 16.95 21.0722 16.78 21.0022 16.55C21.6122 15.94 22.2322 15.32 22.8622 14.71C22.9422 14.63 23.0922 14.58 23.2122 14.58C25.3222 14.58 27.4422 14.58 29.5522 14.58C29.5822 14.58 29.6122 14.61 29.7222 14.66C29.6722 15.07 29.6422 15.51 29.5422 15.93C29.0222 18.22 27.9722 20.22 26.2722 21.87C25.8322 22.3 25.4022 22.75 25.0122 23.22C24.3622 24.01 24.0122 24.96 23.7422 25.93C23.7022 26.09 23.7222 26.26 23.7122 26.43C22.9122 26.43 22.1022 26.44 21.3022 26.44C20.2022 26.44 19.0922 26.43 17.9922 26.42V26.44Z" fill="#FA9746"/>
<path d="M18 14.69C18 13.91 18 13.13 18.01 12.35C19.21 12.29 20.19 11.81 20.82 10.77C21.93 8.94002 21.12 6.44002 18.83 5.81002C18.56 5.74002 18.28 5.72002 18.01 5.68002C18.01 4.38002 18.01 3.07002 18.01 1.77002C19.62 1.71002 21.16 2.08002 22.63 2.69002C24.13 3.32002 25.44 4.24002 26.55 5.43002C28.14 7.13002 29.19 9.12002 29.58 11.43C29.63 11.74 29.68 12.05 29.74 12.43C29.48 12.43 29.28 12.45 29.09 12.45C27.05 12.45 25.01 12.46 22.97 12.45C22.37 12.45 21.89 12.62 21.48 13.07C20.95 13.65 20.37 14.19 19.82 14.74C19.72 14.84 19.6 14.94 19.52 15.02C18.99 14.91 18.5 14.8 18.01 14.7L18 14.69Z" fill="#FA9746"/>
<path d="M18.0114 1.77002C18.0114 3.07002 18.0114 4.38002 18.0114 5.68002C16.4214 5.81002 15.2114 6.73002 14.8214 8.14002C14.6614 8.74002 14.6314 9.37002 14.8514 9.95002C15.0114 10.39 14.9214 10.67 14.5814 10.97C14.1414 11.35 13.7514 11.78 13.3414 12.2C13.1914 12.35 13.0414 12.45 12.8114 12.45C10.7114 12.45 8.62144 12.45 6.52144 12.45C6.47144 12.45 6.41144 12.43 6.33144 12.41C6.21144 11.8 6.43144 11.24 6.57144 10.68C7.02144 8.93002 7.83144 7.36002 8.99144 5.96002C9.94144 4.83002 11.0714 3.95002 12.3514 3.23002C13.5414 2.56002 14.8314 2.14002 16.1714 1.91002C16.7714 1.81002 17.3914 1.82002 18.0014 1.78002L18.0114 1.77002Z" fill="#FEC67C"/>
<path d="M17.9943 26.4399C19.0943 26.4399 20.2043 26.4599 21.3043 26.4599C22.1043 26.4599 22.9143 26.4599 23.7143 26.4499C24.2243 26.5299 24.5643 26.8099 24.6843 27.3299C24.7743 27.7299 24.6443 28.0799 24.3443 28.3299C24.1543 28.4899 23.8943 28.5699 23.6243 28.6999C23.5943 29.2299 23.5843 29.7999 23.5243 30.3699C23.3343 32.3499 22.3043 33.7799 20.5843 34.7199C20.1343 34.9699 19.6243 35.1199 19.0843 35.3399C19.0743 35.4099 19.0543 35.5299 19.0243 35.6499C18.9043 36.1699 18.4943 36.4999 17.9843 36.4999C17.4443 36.4999 17.0543 36.1499 16.9543 35.5899C16.9343 35.4799 16.9243 35.3699 16.9043 35.2599C17.2643 35.1799 17.6143 35.5199 17.9643 35.3099V28.6199H12.4043C12.4043 28.6199 12.3643 28.6199 12.3443 28.6199C11.7843 28.5799 11.3343 28.2099 11.2843 27.5899C11.2443 27.0599 11.5943 26.6799 12.2643 26.4799C14.1743 26.4799 16.0743 26.4599 17.9843 26.4599L17.9943 26.4399Z" fill="#2A2946"/>
<path d="M12.4062 28.61H17.9662V35.3C17.6162 35.5 17.2663 35.17 16.9062 35.25C14.5162 34.7 13.0562 33.2 12.5262 30.84C12.3662 30.12 12.4362 29.35 12.4062 28.61Z" fill="#423B56"/>
<path d="M34.1114 12.4599C34.3714 12.4599 34.6414 12.4499 34.9014 12.4599C35.5514 12.4999 35.9814 12.9299 36.0014 13.5099C36.0114 14.0899 35.6514 14.5299 35.0014 14.5799C34.3914 14.6299 33.7714 14.5799 33.1514 14.5799C32.6714 14.5799 32.2014 14.0499 32.1814 13.5799C32.1514 13.0599 32.5214 12.5899 33.1114 12.4899C33.4414 12.4299 33.7814 12.4499 34.1214 12.4299C34.1214 12.4299 34.1214 12.4399 34.1214 12.4499L34.1114 12.4599Z" fill="#FB622B"/>
<path d="M31.0417 25.39C31.0317 25.94 30.8417 26.25 30.4917 26.44C30.1017 26.66 29.6717 26.65 29.3417 26.35C28.8417 25.91 28.3617 25.43 27.9217 24.93C27.5717 24.53 27.6617 23.94 28.0517 23.57C28.4517 23.18 29.0017 23.12 29.4117 23.48C29.9017 23.91 30.3617 24.38 30.7917 24.86C30.9417 25.03 30.9917 25.28 31.0417 25.39Z" fill="#FB622B"/>
<path d="M7.23245 23.1799C7.88244 23.2499 8.55244 24.0699 8.21245 24.6999C8.12245 24.8599 8.03244 25.0299 7.90245 25.1599C7.55245 25.5299 7.19244 25.8799 6.83244 26.2399C6.31244 26.7699 5.62245 26.6299 5.28245 26.2899C4.84245 25.8599 4.85245 25.2299 5.32245 24.7499C5.70245 24.3599 6.07244 23.9599 6.48244 23.6099C6.69244 23.4299 6.98244 23.3299 7.24244 23.1899L7.23245 23.1799Z" fill="#FA9746"/>
<path d="M28.9078 3.82009C28.3678 3.81009 28.0378 3.63009 27.8378 3.24009C27.6278 2.84009 27.6578 2.43009 27.9678 2.09009C28.3978 1.62009 28.8478 1.17009 29.3178 0.740089C29.7178 0.380089 30.3078 0.420089 30.6978 0.780089C31.1078 1.16009 31.1878 1.77009 30.8078 2.20009C30.3878 2.68009 29.9278 3.12009 29.4578 3.55009C29.2878 3.70009 29.0278 3.75009 28.9078 3.81009V3.82009Z" fill="#FB622B"/>
<path d="M7.19635 3.78002C6.90635 3.81002 6.64635 3.70002 6.41635 3.48002C6.01635 3.08002 5.61635 2.70002 5.23635 2.29002C4.82635 1.85002 4.84635 1.24002 5.24635 0.83002C5.64635 0.42002 6.26635 0.37002 6.70635 0.77002C7.15635 1.18002 7.58635 1.63002 8.01635 2.07002C8.33635 2.40002 8.36635 2.81002 8.17635 3.21002C7.99635 3.59002 7.67635 3.80002 7.19635 3.78002Z" fill="#FA9746"/>
<path d="M1.86437 14.58C1.56437 14.58 1.26437 14.59 0.964372 14.58C0.474372 14.56 0.0943719 14.2 0.0143719 13.71C-0.0656281 13.23 0.194372 12.75 0.644372 12.58C0.834372 12.51 1.04437 12.47 1.24437 12.46C1.69437 12.44 2.14437 12.45 2.59437 12.46C2.94437 12.46 3.25437 12.55 3.50437 12.82C3.79437 13.13 3.93437 13.48 3.75437 13.89C3.58437 14.3 3.28437 14.56 2.82437 14.58C2.50437 14.59 2.18437 14.58 1.87437 14.58H1.86437Z" fill="#FA9746"/>
</g>
<defs>
<clipPath id="clip0_6963_16272">
<rect width="35.99" height="36" fill="white" transform="translate(0 0.5)"/>
</clipPath>
</defs>
</svg>
